<?xml version="1.0" encoding="UTF-8"?><svg id="Layer_1" xmlns="http://www.w3.org/2000/svg" viewBox="0 0 600 44.35"><path d="M47.51,43.6l-4.03-7.83h-25.97l-3.86,7.83H0L21.66.75h17.39l22.92,42.85h-14.46ZM38.53,26.09l-8.29-16.07-7.95,16.07h16.24Z"/><path d="M75.96,43.6h-13.42V.75h13.42v17.85L97.91.75h17.05l-24.65,19.58,25.8,23.27h-17.51l-22.63-20.22v20.22Z"/><path d="M129.93.75v42.85h-13.42V.75h13.42Z"/><path d="M134.71,43.6V.75h19.06l14.8,26.66L183.43.75h18.37v42.85h-13.25V13.94l-16.87,29.66h-7.2l-16.88-29.66v29.66h-12.9Z"/><path d="M249.89,43.6l-4.03-7.83h-25.97l-3.86,7.83h-13.65L224.03.75h17.39l22.92,42.85h-14.45ZM240.91,26.09l-8.29-16.07-7.95,16.07h16.24Z"/><path d="M304.08,44.35c-4.26,0-7.99-.37-11.17-1.09-3.19-.73-5.65-1.61-7.37-2.65-1.73-1.04-3.1-2.29-4.12-3.77-1.02-1.48-1.67-2.81-1.96-4-.29-1.19-.43-2.46-.43-3.8v-.63h13.99c.31,4.53,4.55,6.8,12.73,6.8h.81c2.69,0,4.91-.12,6.68-.37,1.77-.25,3.05-.6,3.86-1.07s1.34-.93,1.61-1.41c.27-.48.4-1.05.4-1.7,0-.92-.23-1.65-.69-2.19-.46-.54-1.54-1.01-3.22-1.41-1.69-.4-4.13-.64-7.32-.72l-7.37-.17c-13.94-.38-20.91-4.57-20.91-12.55v-.52c0-1.77.32-3.36.95-4.78.63-1.42,1.75-2.79,3.34-4.12,1.59-1.32,4-2.35,7.23-3.08,3.22-.73,7.16-1.09,11.81-1.09h3.97c3.92,0,7.37.27,10.37.81,2.99.54,5.38,1.23,7.17,2.07,1.79.84,3.24,1.88,4.38,3.11,1.13,1.23,1.91,2.45,2.33,3.66.42,1.21.63,2.51.63,3.89v.58h-13.94c-.46-3.42-4.59-5.13-12.38-5.13h-.92c-3.22,0-5.7.2-7.43.6-1.73.4-2.77.84-3.14,1.3-.37.46-.55,1.06-.55,1.79,0,.69.19,1.28.58,1.76.38.48,1.34.91,2.88,1.3,1.54.38,3.69.6,6.45.63l7.2.11c8.02.15,13.8,1.24,17.34,3.25,3.53,2.02,5.3,5.17,5.3,9.47v.81c0,1.57-.17,2.99-.52,4.23-.34,1.25-1.06,2.53-2.13,3.83-1.08,1.31-2.51,2.4-4.29,3.28s-4.22,1.6-7.31,2.16c-3.09.56-6.71.84-10.86.84h-3.97Z"/><path d="M351.43,43.6V10.88h-18.43V.75h50.45v10.14h-18.49v32.71h-13.53Z"/><path d="M414.83,44.23h-2.07c-3.19,0-6.1-.28-8.73-.83-2.63-.56-4.85-1.3-6.65-2.22-1.81-.92-3.4-2.03-4.78-3.34-1.38-1.31-2.48-2.63-3.28-3.97-.81-1.34-1.47-2.78-1.99-4.32-.52-1.54-.86-2.94-1.04-4.2-.17-1.27-.26-2.53-.26-3.8V.75h13.48v19.98c0,1.54.2,2.97.6,4.29.4,1.33,1.09,2.63,2.04,3.92s2.43,2.3,4.41,3.05c1.98.75,4.35,1.12,7.11,1.12s5.06-.37,7-1.12c1.94-.75,3.4-1.77,4.38-3.05.98-1.29,1.67-2.59,2.07-3.92.4-1.32.6-2.75.6-4.29V.75h13.42v20.79c0,1.84-.2,3.68-.61,5.5-.4,1.82-1.19,3.8-2.36,5.93-1.17,2.13-2.69,4-4.55,5.62-1.86,1.61-4.42,2.96-7.66,4.03-3.25,1.07-6.96,1.61-11.15,1.61Z"/><path d="M445.42,43.6V.75h28.39c3.99,0,7.6.27,10.83.81,3.23.54,5.91,1.32,8.06,2.33,2.15,1.02,3.99,2.15,5.53,3.4,1.54,1.25,2.71,2.66,3.51,4.23.81,1.57,1.39,3.12,1.76,4.64.36,1.52.55,3.14.55,4.87v1.73c0,2.04-.23,3.95-.69,5.76-.46,1.81-1.37,3.66-2.74,5.56s-3.12,3.53-5.27,4.9c-2.15,1.36-5.07,2.48-8.75,3.34s-7.93,1.3-12.73,1.3h-28.45ZM458.83,10.88v22.4h13.94c11.48,0,17.22-3.69,17.22-11.06v-.35c0-7.33-5.74-11-17.22-11h-13.94Z"/><path d="M520.28.75v42.85h-13.42V.75h13.42Z"/><path d="M553.52,0h2.48c3.72,0,7.1.26,10.14.78,3.03.52,5.58,1.2,7.63,2.04,2.05.84,3.85,1.88,5.39,3.11,1.53,1.23,2.73,2.46,3.6,3.69.86,1.23,1.56,2.57,2.1,4.03.54,1.46.88,2.76,1.04,3.92.15,1.15.23,2.36.23,3.63v1.73c0,1.23-.08,2.42-.23,3.57-.15,1.15-.5,2.47-1.04,3.95-.54,1.48-1.23,2.84-2.07,4.09-.84,1.25-2.04,2.5-3.6,3.74-1.55,1.25-3.35,2.3-5.38,3.17-2.04.86-4.58,1.56-7.63,2.1-3.05.54-6.44.81-10.16.81h-2.48c-3.73,0-7.12-.27-10.19-.81-3.07-.54-5.63-1.24-7.66-2.1-2.04-.86-3.83-1.92-5.39-3.17-1.55-1.25-2.76-2.49-3.63-3.74-.86-1.25-1.55-2.61-2.07-4.09-.52-1.48-.85-2.79-1.01-3.95s-.23-2.34-.23-3.57v-1.73c0-1.27.08-2.47.23-3.6s.49-2.44,1.01-3.92c.52-1.48,1.21-2.83,2.07-4.06.86-1.23,2.06-2.46,3.6-3.69,1.53-1.23,3.33-2.26,5.39-3.11,2.05-.84,4.62-1.53,7.69-2.04,3.07-.52,6.47-.78,10.19-.78ZM572.06,21.6c0-1.07-.13-2.1-.4-3.08-.27-.98-.79-1.98-1.55-2.99-.77-1.02-1.77-1.89-2.99-2.62-1.23-.73-2.91-1.33-5.04-1.81-2.13-.48-4.58-.72-7.34-.72-11.56,0-17.34,3.74-17.34,11.23v.69c0,1.38.24,2.69.72,3.92.48,1.23,1.3,2.46,2.48,3.69s2.97,2.21,5.39,2.94c2.42.73,5.34,1.09,8.76,1.09s6.32-.35,8.72-1.07c2.4-.71,4.19-1.67,5.39-2.88,1.19-1.21,2.02-2.43,2.51-3.66.48-1.23.72-2.53.72-3.92v-.81Z"/><path d="M586.97,1V0h5.16v1h-5.16ZM588.91,5.87V.51h1.27v5.36h-1.27ZM593.23,5.87V0h1.27v5.87h-1.27ZM596.27,5.87l-2.74-5.87h1.24l1.85,4.16,1.84-4.16h1.24l-2.73,5.87h-.69ZM598.73,5.87V0h1.27v5.87h-1.27Z"/></svg>