<?xml version="1.0" encoding="UTF-8"?><svg id="Layer_1" xmlns="http://www.w3.org/2000/svg" viewBox="0 0 360 114.14"><path d="M81.02,50.23l-4.73-9.18h-30.45l-4.52,9.18h-16L50.71,0h20.39l26.87,50.23h-16.95ZM70.49,29.71l-9.72-18.84-9.32,18.84h19.04Z"/><path d="M114.37,50.23h-15.73V0h15.73v20.93L140.1,0h19.99l-28.9,22.95,30.25,27.28h-20.52l-26.53-23.7v23.7Z"/><path d="M177.64,0v50.23h-15.73V0h15.73Z"/><path d="M183.24,50.23V0h22.35l17.35,31.26L240.36,0h21.54v50.23h-15.53V15.46l-19.78,34.77h-8.44l-19.78-34.77v34.77h-15.12Z"/><path d="M318.27,50.23l-4.73-9.18h-30.45l-4.52,9.18h-16L287.96,0h20.39l26.87,50.23h-16.95ZM307.74,29.71l-9.72-18.84-9.32,18.84h19.04Z"/><path d="M29.37,114.14c-5,0-9.36-.43-13.1-1.28-3.74-.85-6.62-1.89-8.64-3.11-2.03-1.21-3.64-2.69-4.83-4.42-1.19-1.73-1.96-3.3-2.3-4.69-.34-1.39-.51-2.88-.51-4.46v-.74h16.41c.36,5.31,5.33,7.97,14.92,7.97h.95c3.15,0,5.76-.15,7.83-.44,2.07-.29,3.58-.71,4.52-1.25.95-.54,1.58-1.09,1.89-1.65.31-.56.47-1.23.47-1.99,0-1.08-.27-1.94-.81-2.57-.54-.63-1.8-1.18-3.78-1.65-1.98-.47-4.84-.75-8.57-.84l-8.64-.2c-16.34-.45-24.51-5.36-24.51-14.72v-.61c0-2.07.37-3.94,1.11-5.6.74-1.66,2.05-3.27,3.92-4.83,1.87-1.55,4.69-2.76,8.47-3.61,3.78-.85,8.39-1.28,13.84-1.28h4.66c4.59,0,8.64.32,12.15.95,3.51.63,6.31,1.44,8.41,2.43,2.09.99,3.8,2.21,5.13,3.65,1.33,1.44,2.24,2.87,2.73,4.29.49,1.42.74,2.94.74,4.56v.67h-16.34c-.54-4.01-5.38-6.01-14.52-6.01h-1.08c-3.78,0-6.68.24-8.71.71-2.02.47-3.25.98-3.68,1.52-.43.54-.64,1.24-.64,2.09,0,.81.22,1.5.67,2.06.45.56,1.58,1.07,3.38,1.52,1.8.45,4.32.7,7.56.74l8.44.13c9.41.18,16.18,1.45,20.32,3.81,4.14,2.36,6.21,6.07,6.21,11.11v.95c0,1.85-.2,3.5-.61,4.96-.41,1.46-1.24,2.96-2.5,4.49-1.26,1.53-2.94,2.81-5.03,3.85-2.09,1.04-4.95,1.88-8.58,2.53-3.62.65-7.87.98-12.73.98h-4.66Z"/><path d="M84.87,113.26v-38.35h-21.61v-11.88h59.14v11.88h-21.67v38.35h-15.87Z"/><path d="M159.21,114h-2.43c-3.74,0-7.15-.33-10.23-.98-3.08-.65-5.68-1.52-7.8-2.6-2.12-1.08-3.98-2.38-5.6-3.91-1.62-1.53-2.9-3.08-3.85-4.66s-1.72-3.26-2.33-5.06c-.61-1.8-1.01-3.45-1.22-4.93-.2-1.49-.3-2.97-.3-4.46v-24.37h15.8v23.43c0,1.8.24,3.48.71,5.03.47,1.55,1.27,3.08,2.4,4.59,1.12,1.51,2.85,2.7,5.16,3.58,2.32.88,5.1,1.32,8.34,1.32s5.93-.44,8.2-1.32c2.27-.88,3.98-2.07,5.13-3.58,1.15-1.51,1.96-3.04,2.43-4.59.47-1.55.71-3.23.71-5.03v-23.43h15.73v24.37c0,2.16-.24,4.31-.71,6.45-.47,2.14-1.4,4.46-2.77,6.95-1.37,2.5-3.15,4.69-5.33,6.58-2.18,1.89-5.18,3.47-8.98,4.73-3.8,1.26-8.16,1.89-13.06,1.89Z"/><path d="M195.06,113.26v-50.23h33.29c4.68,0,8.91.31,12.69.95,3.78.63,6.93,1.54,9.45,2.73,2.52,1.19,4.68,2.52,6.48,3.98,1.8,1.46,3.17,3.12,4.12,4.96.95,1.85,1.63,3.66,2.06,5.44.43,1.78.64,3.68.64,5.7v2.03c0,2.38-.27,4.64-.81,6.75-.54,2.12-1.61,4.29-3.21,6.52-1.6,2.23-3.66,4.14-6.18,5.74-2.52,1.6-5.94,2.9-10.26,3.91-4.32,1.01-9.3,1.52-14.92,1.52h-33.35ZM210.79,74.91v26.26h16.34c13.46,0,20.19-4.32,20.19-12.96v-.41c0-8.6-6.73-12.9-20.19-12.9h-16.34Z"/><path d="M282.83,63.03v50.23h-15.73v-50.23h15.73Z"/><path d="M321.79,62.15h2.9c4.37,0,8.33.3,11.88.91,3.55.61,6.54,1.41,8.95,2.4,2.41.99,4.51,2.21,6.31,3.65,1.8,1.44,3.21,2.88,4.22,4.32,1.01,1.44,1.83,3.02,2.46,4.73.63,1.71,1.03,3.24,1.21,4.59s.27,2.77.27,4.25v2.03c0,1.44-.09,2.84-.27,4.19-.18,1.35-.59,2.89-1.21,4.63-.63,1.73-1.44,3.33-2.43,4.79-.99,1.46-2.4,2.93-4.22,4.39-1.82,1.46-3.93,2.7-6.31,3.71-2.39,1.01-5.37,1.83-8.95,2.46-3.58.63-7.55.95-11.92.95h-2.9c-4.37,0-8.35-.32-11.95-.95-3.6-.63-6.59-1.45-8.98-2.46-2.39-1.01-4.49-2.25-6.31-3.71-1.82-1.46-3.24-2.93-4.25-4.39-1.01-1.46-1.82-3.06-2.43-4.79-.61-1.73-1-3.27-1.18-4.63-.18-1.35-.27-2.74-.27-4.19v-2.03c0-1.48.09-2.89.27-4.22.18-1.33.57-2.86,1.18-4.59.61-1.73,1.42-3.32,2.43-4.76,1.01-1.44,2.42-2.88,4.22-4.32,1.8-1.44,3.9-2.66,6.31-3.65,2.41-.99,5.41-1.79,9.01-2.4,3.6-.61,7.58-.91,11.95-.91ZM343.53,87.47c0-1.26-.16-2.46-.47-3.61-.32-1.15-.92-2.32-1.82-3.51-.9-1.19-2.07-2.22-3.51-3.07-1.44-.85-3.41-1.56-5.91-2.13-2.5-.56-5.37-.84-8.61-.84-13.55,0-20.32,4.39-20.32,13.16v.81c0,1.62.28,3.15.84,4.59.56,1.44,1.53,2.88,2.9,4.32,1.37,1.44,3.48,2.59,6.31,3.44,2.84.86,6.26,1.28,10.26,1.28s7.42-.42,10.23-1.25c2.81-.83,4.92-1.96,6.31-3.38,1.4-1.42,2.37-2.85,2.94-4.29.56-1.44.84-2.97.84-4.59v-.95Z"/><path d="M321.65,1.18V0h6.05v1.18h-6.05ZM323.92,6.88V.6h1.49v6.28h-1.49ZM328.99,6.88V0h1.49v6.88h-1.49ZM332.56,6.88l-3.21-6.88h1.45l2.16,4.88,2.15-4.88h1.45l-3.2,6.88h-.81ZM335.43,6.88V0h1.49v6.88h-1.49Z"/></svg>