<?xml version="1.0" encoding="UTF-8"?><svg id="Layer_1" xmlns="http://www.w3.org/2000/svg" viewBox="0 0 300 48.02"><path d="M53.24,48.02l-4.52-8.78h-29.11l-4.32,8.78H0L24.27,0h19.49l25.69,48.02h-16.2ZM43.18,28.4l-9.29-18.01-8.91,18.01h18.2Z"/><path d="M85.12,48.02h-15.04V0h15.04v20.01L109.71,0h19.1l-27.62,21.94,28.91,26.07h-19.62l-25.36-22.65v22.65Z"/><path d="M145.59,0v48.02h-15.04V0h15.04Z"/><path d="M150.95,48.02V0h21.36l16.59,29.88L205.55,0h20.59v48.02h-14.84V14.78l-18.91,33.24h-8.07l-18.91-33.24v33.24h-14.46Z"/><path d="M280.02,48.02l-4.52-8.78h-29.11l-4.32,8.78h-15.3L251.05,0h19.49l25.69,48.02h-16.2ZM269.96,28.4l-9.29-18.01-8.91,18.01h18.2Z"/><path d="M285.39,1.13V0h5.78v1.13h-5.78ZM287.57,6.58V.57h1.43v6h-1.43ZM292.42,6.58V0h1.43v6.58h-1.43ZM295.82,6.58l-3.07-6.58h1.39l2.07,4.66,2.06-4.66h1.39l-3.06,6.58h-.78ZM298.57,6.58V0h1.43v6.58h-1.43Z"/></svg>